<?xml version="1.0" encoding="utf-8"?>
<!-- Generator: Adobe Illustrator 24.0.1, SVG Export Plug-In . SVG Version: 6.00 Build 0)  -->
<svg version="1.1" id="Capa_1" xmlns="http://www.w3.org/2000/svg" xmlns:xlink="http://www.w3.org/1999/xlink" x="0px" y="0px"
	 viewBox="0 0 512 512" style="enable-background:new 0 0 512 512;" xml:space="preserve">
<style type="text/css">
	.st0{fill:#FCE586;stroke:#FCE586;stroke-miterlimit:10;}
</style>
<g>
	<path class="st0" d="M487.3,272.5c-4.1,0-7.5,3.4-7.5,7.5v203.1c0,7.6-6.2,13.8-13.8,13.8H289c-7.6,0-13.8-6.2-13.8-13.8v-20
		c0-4.1-3.4-7.5-7.5-7.5s-7.5,3.4-7.5,7.5v20c0,5,1.3,9.7,3.5,13.8H34.7c-1.4,0-2.5-1.1-2.5-2.5V313.2c0-4.1-3.4-7.5-7.5-7.5
		s-7.5,3.4-7.5,7.5v181.3c0,9.7,7.9,17.5,17.5,17.5h431.2c15.9,0,28.9-13,28.9-28.9V280C494.8,275.9,491.5,272.5,487.3,272.5
		L487.3,272.5z"/>
	<path class="st0" d="M465.9,161.4h-72.6v-60.7c0-2-0.8-3.9-2.2-5.3L298,2.2c-1.4-1.4-3.3-2.2-5.3-2.2H34.7C25,0,17.2,7.9,17.2,17.5
		v265.6c0,4.1,3.4,7.5,7.5,7.5s7.5-3.4,7.5-7.5V17.5c0-1.4,1.1-2.5,2.5-2.5h250.4v65.6c0,15.2,12.4,27.6,27.6,27.6h65.6v53.2H289
		c-15.9,0-28.9,13-28.9,28.9v1.2H141c-4.1,0-7.5,3.4-7.5,7.5c0,4.1,3.4,7.5,7.5,7.5h119.1v51H141c-4.1,0-7.5,3.4-7.5,7.5
		s3.4,7.5,7.5,7.5h119.1v51H141c-4.1,0-7.5,3.4-7.5,7.5s3.4,7.5,7.5,7.5h119.1v51H141c-4.1,0-7.5,3.4-7.5,7.5s3.4,7.5,7.5,7.5h119.1
		v28.4c0,4.1,3.4,7.5,7.5,7.5s7.5-3.4,7.5-7.5V190.3c0-7.6,6.2-13.8,13.8-13.8h177c7.6,0,13.8,6.2,13.8,13.8V250
		c0,4.1,3.4,7.5,7.5,7.5s7.5-3.4,7.5-7.5v-59.7C494.8,174.3,481.9,161.4,465.9,161.4L465.9,161.4z M300.2,80.6V25.7l67.5,67.5h-54.9
		C305.8,93.1,300.2,87.5,300.2,80.6L300.2,80.6z"/>
	<path class="st0" d="M458,213.6c0-9.7-7.9-17.5-17.5-17.5H315.7c-9.7,0-17.5,7.9-17.5,17.5V256c0,9.7,7.9,17.5,17.5,17.5h124.8
		c9.7,0,17.5-7.9,17.5-17.5V213.6z M443,256c0,1.4-1.1,2.5-2.5,2.5H315.7c-1.4,0-2.5-1.1-2.5-2.5v-42.4c0-1.4,1.1-2.5,2.5-2.5h124.8
		c1.4,0,2.5,1.1,2.5,2.5V256z"/>
	<path class="st0" d="M298.2,335.2c0,9.3,7.5,16.8,16.8,16.8h14.3c9.3,0,16.8-7.5,16.8-16.8v-14.3c0-9.3-7.5-16.8-16.8-16.8H315
		c-9.3,0-16.8,7.5-16.8,16.8L298.2,335.2z M313.2,320.9c0-1,0.8-1.7,1.7-1.7h14.3c1,0,1.7,0.8,1.7,1.7v14.3c0,1-0.8,1.7-1.7,1.7H315
		c-1,0-1.7-0.8-1.7-1.7V320.9z"/>
	<path class="st0" d="M402,320.9c0-9.3-7.5-16.8-16.8-16.8H371c-9.3,0-16.8,7.5-16.8,16.8v14.3c0,9.3,7.5,16.8,16.8,16.8h14.3
		c9.3,0,16.8-7.5,16.8-16.8V320.9z M387,335.2c0,1-0.8,1.7-1.7,1.7H371c-1,0-1.7-0.8-1.7-1.7v-14.3c0-1,0.8-1.7,1.7-1.7h14.3
		c1,0,1.7,0.8,1.7,1.7L387,335.2L387,335.2z"/>
	<path class="st0" d="M458,320.9c0-9.3-7.5-16.8-16.8-16.8h-14.3c-9.3,0-16.8,7.5-16.8,16.8v14.3c0,9.3,7.5,16.8,16.8,16.8h14.3
		c9.3,0,16.8-7.5,16.8-16.8V320.9z M443,335.2c0,1-0.8,1.7-1.7,1.7h-14.3c-1,0-1.7-0.8-1.7-1.7v-14.3c0-1,0.8-1.7,1.7-1.7h14.3
		c1,0,1.7,0.8,1.7,1.7V335.2z"/>
	<path class="st0" d="M298.2,396.5c0,9.3,7.5,16.8,16.8,16.8h14.3c9.3,0,16.8-7.5,16.8-16.8v-14.3c0-9.3-7.5-16.8-16.8-16.8H315
		c-9.3,0-16.8,7.5-16.8,16.8L298.2,396.5z M313.2,382.2c0-1,0.8-1.7,1.7-1.7h14.3c1,0,1.7,0.8,1.7,1.7v14.3c0,1-0.8,1.7-1.7,1.7H315
		c-1,0-1.7-0.8-1.7-1.7V382.2z"/>
	<path class="st0" d="M402,382.2c0-9.3-7.5-16.8-16.8-16.8H371c-9.3,0-16.8,7.5-16.8,16.8v14.3c0,9.3,7.5,16.8,16.8,16.8h14.3
		c9.3,0,16.8-7.5,16.8-16.8V382.2z M387,396.5c0,1-0.8,1.7-1.7,1.7H371c-1,0-1.7-0.8-1.7-1.7v-14.3c0-1,0.8-1.7,1.7-1.7h14.3
		c1,0,1.7,0.8,1.7,1.7L387,396.5L387,396.5z"/>
	<path class="st0" d="M298.2,457.8c0,9.3,7.5,16.8,16.8,16.8h14.3c9.3,0,16.8-7.5,16.8-16.8v-14.3c0-9.3-7.5-16.8-16.8-16.8H315
		c-9.3,0-16.8,7.5-16.8,16.8L298.2,457.8z M313.2,443.5c0-1,0.8-1.7,1.7-1.7h14.3c1,0,1.7,0.8,1.7,1.7v14.3c0,1-0.8,1.7-1.7,1.7H315
		c-1,0-1.7-0.8-1.7-1.7V443.5z"/>
	<path class="st0" d="M385.3,426.7H371c-9.3,0-16.8,7.5-16.8,16.8v14.3c0,9.3,7.5,16.8,16.8,16.8h14.3c9.3,0,16.8-7.5,16.8-16.8
		v-14.3C402,434.2,394.5,426.7,385.3,426.7L385.3,426.7z M387,457.8c0,1-0.8,1.7-1.7,1.7H371c-1,0-1.7-0.8-1.7-1.7v-14.3
		c0-1,0.8-1.7,1.7-1.7h14.3c1,0,1.7,0.8,1.7,1.7L387,457.8L387,457.8z"/>
	<path class="st0" d="M439.8,365.4h-11.5c-10,0-18.2,8.2-18.2,18.2v72.7c0,10,8.2,18.2,18.2,18.2h11.5c10,0,18.2-8.2,18.2-18.2
		v-72.7C458,373.6,449.9,365.4,439.8,365.4z M443,456.4c0,1.7-1.4,3.2-3.2,3.2h-11.5c-1.7,0-3.2-1.4-3.2-3.2v-72.7
		c0-1.7,1.4-3.2,3.2-3.2h11.5c1.7,0,3.2,1.4,3.2,3.2V456.4z"/>
	<path class="st0" d="M77.2,140.4h30c4.2,0,7.5-3.4,7.5-7.5c0-4.1-3.4-7.5-7.5-7.5h-30c-4.2,0-7.5,3.4-7.5,7.5
		S73.1,140.4,77.2,140.4z"/>
	<path class="st0" d="M141,140.4h144.6c4.1,0,7.5-3.4,7.5-7.5c0-4.1-3.4-7.5-7.5-7.5H141c-4.1,0-7.5,3.4-7.5,7.5
		C133.5,137,136.9,140.4,141,140.4z"/>
	<path class="st0" d="M77.2,206.5h30c4.2,0,7.5-3.4,7.5-7.5s-3.4-7.5-7.5-7.5h-30c-4.2,0-7.5,3.4-7.5,7.5S73.1,206.5,77.2,206.5z"/>
	<path class="st0" d="M77.2,272.5h30c4.2,0,7.5-3.4,7.5-7.5s-3.4-7.5-7.5-7.5h-30c-4.2,0-7.5,3.4-7.5,7.5S73.1,272.5,77.2,272.5z"/>
	<path class="st0" d="M77.2,338.6h30c4.2,0,7.5-3.4,7.5-7.5s-3.4-7.5-7.5-7.5h-30c-4.2,0-7.5,3.4-7.5,7.5
		C69.7,335.2,73.1,338.6,77.2,338.6z"/>
	<path class="st0" d="M77.2,404.7h30c4.2,0,7.5-3.4,7.5-7.5s-3.4-7.5-7.5-7.5h-30c-4.2,0-7.5,3.4-7.5,7.5S73.1,404.7,77.2,404.7z"/>
</g>
</svg>
