<svg id="_x33_0" enable-background="new 0 0 64 64" height="512" viewBox="0 0 64 64" width="512" xmlns="http://www.w3.org/2000/svg"><g><path d="m35 41h-6v12h12v-6h4v-10h-10zm4 10h-8v-8h4v4h4zm-2-12h6v6h-6z"/><path d="m11 51h14v2h-14z"/><path d="m11 47h4v2h-4z"/><path d="m17 47h8v2h-8z"/><path d="m41.515 13h16.971v2h-16.971z" transform="matrix(.707 -.707 .707 .707 4.745 39.456)"/><path d="m46 13c1.654 0 3-1.346 3-3s-1.346-3-3-3-3 1.346-3 3 1.346 3 3 3zm0-4c.551 0 1 .448 1 1s-.449 1-1 1-1-.448-1-1 .449-1 1-1z"/><path d="m54 15c-1.654 0-3 1.346-3 3s1.346 3 3 3 3-1.346 3-3-1.346-3-3-3zm0 4c-.551 0-1-.448-1-1s.449-1 1-1 1 .448 1 1-.449 1-1 1z"/><path d="m63 14c0-7.168-5.832-13-13-13s-13 5.832-13 13c0 2.578.764 4.977 2.063 7h-26.063v-3c0-1.654-1.346-3-3-3h-9v48h9c1.654 0 3-1.346 3-3v-3h35c1.654 0 3-1.346 3-3v-27.051c6.701-.514 12-6.119 12-12.949zm-14 12.949v.051h-40v-4h31.641c2.149 2.234 5.084 3.698 8.359 3.949zm-40 2.051h40v2h-40zm2-11v3h-2v-4h1c.551 0 1 .448 1 1zm-8-1h4v44h-4zm8 43c0 .552-.449 1-1 1h-1v-4h2zm37-5h-39v-22h40v21c0 .552-.449 1-1 1zm2-30c-6.065 0-11-4.935-11-11s4.935-11 11-11 11 4.935 11 11-4.935 11-11 11z"/></g></svg>