<?xml version="1.0" encoding="utf-8"?>
<!-- Generator: Adobe Illustrator 24.0.1, SVG Export Plug-In . SVG Version: 6.00 Build 0)  -->
<svg version="1.1" id="_x33_0" xmlns="http://www.w3.org/2000/svg" xmlns:xlink="http://www.w3.org/1999/xlink" x="0px" y="0px"
	 viewBox="0 0 512 512" style="enable-background:new 0 0 512 512;" xml:space="preserve">
<style type="text/css">
	.st0{fill:#FCE586;stroke:#FCE586;stroke-miterlimit:10;}
</style>
<g>
	<path class="st0" d="M280,328h-48v96h96v-48h32v-80h-80V328z M312,408h-64v-64h32v32h32V408z M296,312h48v48h-48V312z"/>
	<path class="st0" d="M88,408h112v16H88V408z"/>
	<path class="st0" d="M88,376h32v16H88V376z"/>
	<path class="st0" d="M136,376h64v16h-64V376z"/>
	<path class="st0" d="M346.3,154.4l96-96l11.3,11.3l-96,96L346.3,154.4z"/>
	<path class="st0" d="M368,104c13.2,0,24-10.8,24-24s-10.8-24-24-24s-24,10.8-24,24S354.8,104,368,104z M368,72c4.4,0,8,3.6,8,8
		s-3.6,8-8,8s-8-3.6-8-8S363.6,72,368,72z"/>
	<path class="st0" d="M432,120c-13.2,0-24,10.8-24,24s10.8,24,24,24s24-10.8,24-24S445.2,120,432,120z M432,152c-4.4,0-8-3.6-8-8
		s3.6-8,8-8s8,3.6,8,8S436.4,152,432,152z"/>
	<path class="st0" d="M504,112C504,54.7,457.3,8,400,8S296,54.7,296,112c0,20.6,6.1,39.8,16.5,56H104v-24c0-13.2-10.8-24-24-24H8
		v384h72c13.2,0,24-10.8,24-24v-24h280c13.2,0,24-10.8,24-24V215.6C461.6,211.5,504,166.6,504,112z M392,215.6v0.4H72v-32h253.1
		C342.3,201.9,365.8,213.6,392,215.6z M72,232h320v16H72V232z M88,144v24H72v-32h8C84.4,136,88,139.6,88,144z M24,136h32v352H24V136
		z M88,480c0,4.4-3.6,8-8,8h-8v-32h16V480z M384,440H72V264h320v168C392,436.4,388.4,440,384,440z M400,200c-48.5,0-88-39.5-88-88
		s39.5-88,88-88s88,39.5,88,88S448.5,200,400,200z"/>
</g>
</svg>
