<?xml version="1.0" encoding="utf-8"?>
<!-- Generator: Adobe Illustrator 24.0.1, SVG Export Plug-In . SVG Version: 6.00 Build 0)  -->
<svg version="1.1" id="Capa_1" xmlns="http://www.w3.org/2000/svg" xmlns:xlink="http://www.w3.org/1999/xlink" x="0px" y="0px"
	 viewBox="0 0 512 512" style="enable-background:new 0 0 512 512;" xml:space="preserve">
<style type="text/css">
	.st0{fill:#FFFFFF;stroke:#000000;stroke-miterlimit:10;}
</style>
<g>
	<path class="st0" d="M115.9,191h280.3v15H115.9V191z"/>
	<path class="st0" d="M305.5,152.8h90.7v15h-90.7V152.8z"/>
	<path class="st0" d="M115.9,152.8h174.6v15H115.9V152.8z"/>
	<path class="st0" d="M319.2,114.5h77v15h-77V114.5z"/>
	<path class="st0" d="M259.2,114.5h15v15h-15V114.5z"/>
	<path class="st0" d="M289.2,114.5h15v15h-15V114.5z"/>
	<path class="st0" d="M467,145.9V0h-52.5v15H452v223.4h15v-54.2l27.5,64.5L384.9,287l4.9,14.2L497,263.6v150.9h15v-163L467,145.9z"
		/>
	<path class="st0" d="M15,263.6l241,84.2L375.6,306l-4.9-14.2L256,331.9L17.5,248.6L45,184.1v54.2h15V15h339.5V0H45v145.9L0,251.5
		v163h15V263.6z"/>
	<path class="st0" d="M497,497H15v-67.5H0V512h512v-82.5h-15V497z"/>
	<path class="st0" d="M248.5,414.5h15v15h-15V414.5z"/>
	<path class="st0" d="M211,414.5h15v15h-15V414.5z"/>
	<path class="st0" d="M286,414.5h15v15h-15V414.5z"/>
</g>
</svg>
