<?xml version="1.0" encoding="utf-8"?>
<!-- Generator: Adobe Illustrator 24.0.1, SVG Export Plug-In . SVG Version: 6.00 Build 0)  -->
<svg version="1.1" id="Capa_1" xmlns="http://www.w3.org/2000/svg" xmlns:xlink="http://www.w3.org/1999/xlink" x="0px" y="0px"
	 viewBox="0 0 512 512" style="enable-background:new 0 0 512 512;" xml:space="preserve">
<style type="text/css">
	.st0{fill:#FCE586;stroke:#FCE586;stroke-miterlimit:10;}
</style>
<path class="st0" d="M460.8,460.8H273.1v17.1h196.3c4.7,0,8.5-3.8,8.5-8.5V179.2h-17.1L460.8,460.8L460.8,460.8z"/>
<path class="st0" d="M128,68.3h196.3V51.2H119.5c-4.7,0-8.5,3.8-8.5,8.5v93.9h17V68.3z"/>
<path class="st0" d="M247.5,324.3h-17.1V179.2c0-4.7-3.8-8.5-8.5-8.5H34.1c-4.7,0-8.5,3.8-8.5,8.5v145.1H8.5c-4.7,0-8.5,3.8-8.5,8.5
	v170.7c0,4.7,3.8,8.5,8.5,8.5h238.9c4.7,0,8.5-3.8,8.5-8.5V332.8C256,328.1,252.2,324.3,247.5,324.3z M102.4,187.7h51.2v34.1h-51.2
	C102.4,221.8,102.4,187.7,102.4,187.7z M42.7,187.7h42.7v42.7c0,4.7,3.8,8.5,8.5,8.5h68.3c4.7,0,8.5-3.8,8.5-8.5v-42.7h42.7v136.5
	H42.7V187.7z M102.4,341.3h51.2v34.1h-51.2C102.4,375.4,102.4,341.3,102.4,341.3z M238.9,494.9H17.1V341.3h68.3V384
	c0,4.7,3.8,8.5,8.5,8.5h68.3c4.7,0,8.5-3.8,8.5-8.5v-42.7H239v153.6H238.9z"/>
<path class="st0" d="M204.8,460.8h17.1v17.1h-17.1V460.8z"/>
<path class="st0" d="M170.7,460.8h17.1v17.1h-17.1V460.8z"/>
<path class="st0" d="M179.2,290.1h17.1v17.1h-17.1V290.1z"/>
<path class="st0" d="M145.1,290.1h17.1v17.1h-17.1V290.1z"/>
<path class="st0" d="M435.2,204.8c0-4.7-3.8-8.5-8.5-8.5H247.5v17.1h110.9V239H247.5v17h110.9v25.6H247.5v17.1h110.9v25.6h-85.3
	v17.1h85.3V367h-85.3v17h153.6c4.7,0,8.5-3.8,8.5-8.5L435.2,204.8L435.2,204.8z M375.5,213.3h42.7v25.6h-42.7V213.3z M375.5,256
	h42.7v25.6h-42.7V256z M375.5,298.7h42.7v25.6h-42.7V298.7z M375.5,366.9v-25.6h42.7v25.6H375.5z"/>
<path class="st0" d="M153.6,93.9h17.1V111h-17.1V93.9z"/>
<path class="st0" d="M187.7,93.9h110.9V111H187.7V93.9z"/>
<path class="st0" d="M153.6,128h145.1v17.1H153.6V128z"/>
<path class="st0" d="M418.1,418.1h17.1v17.1h-17.1V418.1z"/>
<path class="st0" d="M384,418.1h17.1v17.1H384V418.1z"/>
<path class="st0" d="M395,104.9l51.2-51.2l12.1,12.1L407,117L395,104.9z"/>
<path class="st0" d="M392.5,51.2h17.1v17.1h-17.1V51.2z"/>
<path class="st0" d="M443.7,102.4h17.1v17.1h-17.1V102.4z"/>
<path class="st0" d="M426.7,0c-47.1,0-85.3,38.2-85.3,85.3s38.2,85.3,85.3,85.3S512,132.5,512,85.3C511.9,38.2,473.8,0.1,426.7,0z
	 M426.7,153.6c-37.7,0-68.3-30.6-68.3-68.3S389,17,426.7,17S495,47.6,495,85.3C494.9,123,464.4,153.6,426.7,153.6z"/>
<path class="st0" d="M494.9,213.3H512V401h-17.1V213.3z"/>
<path class="st0" d="M494.9,418.1H512v17.1h-17.1V418.1z"/>
</svg>
